<svg width="21" height="20" viewBox="0 0 21 20" fill="none" xmlns="http://www.w3.org/2000/svg">
<path d="M18.7268 0.754639H2.2752C1.71169 0.754639 1.25488 1.21145 1.25488 1.77495V18.2265C1.25488 18.79 1.71169 19.2468 2.2752 19.2468H18.7268C19.2903 19.2468 19.7471 18.79 19.7471 18.2265V1.77495C19.7471 1.21145 19.2903 0.754639 18.7268 0.754639Z" fill="#3D5A98"/>
<path d="M14.0123 19.2453V12.0844H16.4154L16.7748 9.29378H14.0123V7.51253C14.0123 6.70472 14.2373 6.15316 15.3951 6.15316H16.8732V3.65316C16.1575 3.57856 15.4382 3.54309 14.7186 3.54691C12.5904 3.54691 11.1248 4.84378 11.1248 7.23597V9.29378H8.72168V12.0844H11.1248V19.2453H14.0123Z" fill="white"/>
</svg>
