<svg width="48" height="48" viewBox="0 0 48 48" fill="none" xmlns="http://www.w3.org/2000/svg">
<path d="M24 18C27.18 33.22 20 44 20 44H26C29.76 32.4 28 24.18 27 20M31.32 14.32C31.66 14.74 32 15.18 32.26 15.64C33.8896 18.2162 34.647 21.2484 34.4201 24.2883C34.1932 27.3281 32.994 30.2143 31 32.52C31.8641 30.4253 32.2151 28.1545 32.0237 25.8966C31.8324 23.6388 31.1042 21.4594 29.9 19.54C29.74 19.28 29.56 19.06 29.4 18.82C28.25 17.2149 26.7789 15.8663 25.08 14.86C22.2001 15.7792 19.6871 17.5901 17.9039 20.0312C16.1207 22.4722 15.1598 25.417 15.16 28.44C15.16 29.92 15.38 31.34 15.78 32.66C14.0459 30.2478 13.1152 27.3508 13.12 24.38C13.12 19.68 15.4 15.52 18.9 12.92C16 12.7 12.92 13.34 10.24 15C9 15.82 7.92 16.76 7 17.82C8.1 15.16 10 12.78 12.6 11.14C15.6 9.26 19 8.64 22.28 9.12C21.46 8 20.46 6.94 19.26 6C18.1 5.16 16.84 4.48 15.52 4C18.4 4.08 21.28 5 23.74 6.86C25 7.8 26 8.94 26.8 10.14C27 10.14 27.18 10.12 27.38 10.12C33.78 10.12 39.2 14.34 41 20.16C39.8747 18.5733 38.4343 17.2358 36.7688 16.231C35.1032 15.2261 33.2483 14.5756 31.32 14.32Z" fill="#278E0E"/>
</svg>
